Coordinates
version=1
nRows=8
nColumns=33
inDegrees=yes

Units are S.I. units (second, meters, Newtons, ...)
Angles are in degrees.

endheader
time	ground_thorax_rot_x	ground_thorax_rot_y	ground_thorax_rot_z	ground_thorax_tx	ground_thorax_ty	ground_thorax_tz	clav_prot_r	clav_elev_r	scapula_abduction_r	scapula_elevation_r	scapula_upward_rot_r	scapula_winging_r	shoulder_elv_r	plane_of_elev_r	axial_rot_r	elbow_flexion_r	pro_sup_r	wrist_flex_r	wrist_dev_r	clav_prot_l	clav_elev_l	scapula_abduction_l	scapula_elevation_l	scapula_upward_rot_l	scapula_winging_l	shoulder_elv_l	plane_of_elev_l	axial_rot_l	elbow_flexion_l	pro_sup_l	wrist_flex_l	wrist_dev_l
      4.14000000	     38.49236033	      6.81023356	     11.20102115	   -152.17817215	    814.15818119	      1.06198350	     17.51911193	     39.83628426	     43.84872936	     45.00000000	    -40.03162313	  -2605.52750415	  -3708.06632084	    145.95335073	   -160.34510911	    369.80908990	    -11.28595454	     17.19062816	      9.80856663	      9.66176042	    -45.00000000	    -43.16053804	     45.00000000	    -24.79892255	   -624.59459956	  -1894.97166915	    137.39329789	    179.99999979	      8.13703885	     13.77716007	      8.60463303	    -21.07463146
      4.15000000	     38.13848866	      6.99240804	     10.76157971	   -156.81479053	    817.19667835	      3.31464222	     17.19611809	     39.99614751	     43.76723723	     45.00000000	    -39.66377057	  -2606.17804322	  -3706.43386417	    145.66598255	   -162.55456647	    373.44009528	     44.79336493	     18.60134301	      5.12778269	      9.26596170	    -45.00000000	    -43.10964644	     45.00000000	    -25.11154885	   -624.15687468	  -1894.59493772	    137.41633399	    179.99999979	      7.97963842	     13.72059376	      8.24389894	    -21.10692248
      4.16000000	     37.97060379	      7.07376196	     10.39541773	   -161.73774032	    819.28607166	      4.70449977	     17.06106141	     39.92575306	     43.66053003	     45.00000000	    -39.29014729	  -2606.57250604	  -3706.49315604	    145.85372083	   -156.66404617	    373.96317796	     46.71437980	     18.13355384	      4.85154685	      9.61278864	    -45.00000000	    -42.99207635	     45.00000000	    -25.46958319	   -623.85766791	  -1894.36830568	    137.55858822	    179.99999979	      7.87295634	     13.69227734	      8.45690665	    -21.14067663
      4.17000000	     37.80212540	      7.87191782	     11.03694506	   -166.86692317	    820.55767715	      5.38316978	     16.84012251	     39.60738590	     43.37495156	     45.00000000	    -40.99444344	  -2606.80516214	  -3707.56338700	    146.29102599	   -132.54420648	    383.95186168	    159.16037248	     12.83776192	      5.68800158	      9.67561897	    -45.00000000	    -42.33248659	     45.00000000	    -27.82965816	   -623.60954925	  -1893.89845666	    137.40206202	    179.99999979	      7.90281385	     15.26559234	      7.96890172	    -21.26691611
      4.18000000	     37.83025725	      8.30331291	     11.45713024	   -172.13854108	    821.13095546	      5.47698214	     17.05316629	     39.35442779	     43.10671670	     45.00000000	    -41.35754537	  -2606.95329795	  -3707.60626891	    146.58256763	   -130.64145983	    384.01547291	    157.87478499	     12.80986763	      5.86498831	      9.73299217	    -45.00000000	    -41.72525144	     45.00000000	    -29.82974934	   -623.32488131	  -1893.73932865	    137.25858093	    179.99999979	      7.77145956	     15.09093486	      8.00206941	    -21.38390848
      4.19000000	     37.85388101	      8.71562148	     11.78739407	   -177.25227383	    821.56663516	      5.58155544	     16.90750198	     39.36832966	     42.90816959	     45.00000000	    -42.27380127	  -2607.17493125	  -3707.60228482	    146.65379625	   -129.83592968	    384.01435022	    156.54951353	     12.90291516	      5.73898359	      9.75966101	    -45.00000000	    -41.13174982	     45.00000000	    -31.49050883	   -623.09976929	  -1893.61304012	    137.16150812	    179.99999979	      7.62042454	     15.29227036	      7.82352378	    -21.40689147
      4.20000000	     37.85849945	      9.06461488	     12.04523882	   -182.18501516	    821.87747232	      5.69840978	     16.85294464	     39.12626651	     42.58546405	     45.00000000	    -43.23884946	  -2607.20056792	  -3707.44439946	    146.68135746	   -129.34131107	    384.00363756	    155.06635943	     12.99724437	      5.56178024	      9.78912103	    -45.00000000	    -40.62733560	     45.00000000	    -33.09069373	   -622.97633635	  -1893.46659508	    137.20277221	    179.99999979	      7.51785464	     15.75920725	      7.72175744	    -21.46167023
      4.21000000	     37.86569862	      9.38204529	     12.24446871	   -186.91263252	    822.07345479	      5.82656397	     16.88066166	     38.92213776	     42.34633725	     45.00000000	    -43.99332482	  -2607.31607060	  -3707.46794546	    146.78075068	   -128.46858811	    383.99438388	    153.43094351	     13.01667150	      5.59720429	      9.84515639	    -45.00000000	    -40.29918221	     45.00000000	    -34.51714105	   -622.70470096	  -1893.46280061	    137.15909286	    179.99999979	      7.40266922	     16.46134496	      7.73248857	    -21.56010306
